<svg xmlns="http://www.w3.org/2000/svg" viewBox="0 0 100 100" fill="none">
  <path fill-rule="evenodd" clip-rule="evenodd" d="M58.9296 13.1156C64.1496 16.6224 69.3214 20.8626 74.2253 25.7722C81.287 32.8285 86.9728 40.4361 91.0903 47.9319C96.7868 58.3077 99.4852 68.5182 98.9284 76.8911C98.5162 83.1498 96.3319 88.4662 92.3968 92.4007C87.2999 97.4977 79.8099 99.6713 71.0089 98.82C68.6586 98.5952 66.9238 96.4965 67.1488 94.146C67.3736 91.7958 69.4723 90.061 71.8281 90.2966C77.7547 90.8695 82.9051 89.7773 86.3425 86.3401C89.5656 83.117 90.7166 78.3682 90.3793 72.8912C89.9885 66.5843 87.606 59.3887 83.58 52.0596C79.8162 45.2173 74.6176 38.2728 68.1719 31.8269C62.3737 26.0286 56.174 21.2369 50.0007 17.596C43.8278 21.2366 37.6281 26.0283 31.8296 31.8269C30.3197 33.3367 28.885 34.868 27.5144 36.4206C25.9565 38.1927 23.242 38.3694 21.4699 36.806C19.7031 35.2428 19.5264 32.5283 21.0898 30.7615C22.5781 29.0696 24.1362 27.4046 25.7691 25.7717C32.8254 18.7153 40.4384 13.0348 47.9286 8.91752L47.934 8.91217C58.315 3.21024 68.5201 0.511948 76.893 1.07403C83.1516 1.48627 88.4733 3.67062 92.397 7.60038C97.4993 12.6973 99.6675 20.1927 98.8216 28.9939C98.5968 31.3442 96.5034 33.0683 94.1477 32.8487C91.7919 32.6185 90.0626 30.5252 90.2982 28.1694C90.8604 22.2427 89.7789 17.0869 86.3418 13.6548C83.1187 10.4264 78.3646 9.28072 72.893 9.62337C68.5725 9.88571 63.8398 11.0864 58.9296 13.1156ZM52.0661 91.0844C41.685 96.7864 31.4799 99.4846 23.107 98.9226C16.8484 98.5103 11.5267 96.3313 7.59755 92.4016C2.50063 87.2993 0.332369 79.8092 1.17829 71.008C1.40315 68.6522 3.49649 66.9283 5.85225 67.1479C8.208 67.3781 9.93192 69.4714 9.70166 71.8272C9.13416 77.7539 10.2156 82.9097 13.6528 86.3472C16.8812 89.5703 21.63 90.716 27.1069 90.3787C31.4274 90.111 36.1603 88.9118 41.065 86.8879C35.8503 83.3758 30.6785 79.1356 25.7747 74.226C18.7131 67.1697 13.0272 59.562 8.90974 52.0663C3.21333 41.6905 0.514931 31.48 1.07166 23.1071C1.4839 16.8484 3.66823 11.532 7.59796 7.60292C12.7002 2.50062 20.1902 0.332347 28.9914 1.17828C31.3416 1.40849 33.0764 3.50184 32.8515 5.85227C32.6213 8.20256 30.5279 9.93732 28.1722 9.70706C22.2455 9.12885 17.0898 10.221 13.6577 13.6582C10.4347 16.8813 9.28363 21.6355 9.62093 27.1125C10.0118 33.414 12.3942 40.6096 16.4203 47.9386C20.184 54.7809 25.3826 61.7295 31.8283 68.1713C37.6266 73.9749 43.8263 78.7666 49.9995 82.4021C56.1725 78.7669 62.3721 73.9698 68.1707 68.1713C69.6805 66.6668 71.1099 65.1357 72.4805 63.5776C74.0437 61.8054 76.7528 61.6288 78.5303 63.1921C80.2972 64.7608 80.4685 67.4699 78.9105 69.2421C77.4221 70.9286 75.8587 72.5989 74.2258 74.2318C67.1749 81.2828 59.562 86.9634 52.0717 91.0805L52.0661 91.0844Z" fill="#18181B"></path>
  <path d="M64.222 48.524C54.267 46.276 52.725 44.734 50.477 34.779C50.374 34.324 49.969 34 49.501 34C49.033 34 48.628 34.324 48.525 34.779C46.276 44.734 44.735 46.276 34.78 48.524C34.324 48.628 34 49.032 34 49.5C34 49.968 34.324 50.372 34.78 50.476C44.735 52.725 46.276 54.267 48.525 64.221C48.628 64.676 49.033 65 49.501 65C49.969 65 50.374 64.676 50.477 64.221C52.726 54.267 54.267 52.725 64.222 50.476C64.678 50.372 65.001 49.968 65.001 49.5C65.001 49.032 64.677 48.628 64.222 48.524Z" fill="#18181B"></path>
</svg>
